<svg width="196" height="74" viewBox="0 0 196 74" fill="none" xmlns="http://www.w3.org/2000/svg">
<path d="M122.015 5.49353C122.035 4.39121 122.077 3.3619 122.071 2.3329C122.068 1.88927 122.282 1.81728 122.646 1.81467C125.601 1.79351 128.556 1.75642 131.511 1.73967C133.125 1.73052 134.739 1.7607 136.353 1.75657C138.82 1.75024 141.288 1.72555 143.755 1.7163C145.686 1.70905 147.617 1.71532 149.548 1.71209C151.674 1.70853 153.8 1.69924 155.926 1.69569C157.858 1.69245 159.789 1.69405 161.72 1.69263C163.699 1.69118 165.679 1.68588 167.659 1.68745C169.346 1.6888 171.034 1.70411 172.721 1.70137C175.018 1.69763 177.314 1.67941 179.611 1.67339C181.518 1.66839 183.424 1.66964 185.331 1.6726C186.994 1.67519 188.657 1.69191 190.32 1.68682C191.157 1.68426 191.994 1.63603 192.831 1.63496C193 1.63474 193.168 1.75427 193.336 1.8186C193.228 1.94212 193.133 2.08176 193.009 2.18647C192.347 2.74395 191.636 3.25019 191.018 3.85242C189.153 5.67143 187.327 7.53152 185.477 9.36595C184.128 10.7028 182.763 12.0231 181.408 13.3531C179.965 14.7683 178.529 16.1896 177.084 17.6022C175.177 19.4656 173.268 21.3254 171.355 23.1823C169.6 24.8864 167.838 26.5838 166.081 28.2858C164.271 30.0386 162.462 31.7925 160.655 33.5475C158.794 35.3534 156.936 37.1612 155.077 38.9681C153.218 40.775 151.357 42.5807 149.5 44.3893C148.174 45.6801 146.852 46.9747 145.529 48.268C144.189 49.5784 142.848 50.8884 141.509 52.2003C140.1 53.5805 138.693 54.9622 137.287 56.3445C135.828 57.778 134.373 59.215 132.913 60.6471C131.592 61.9426 130.262 63.2292 128.944 64.5278C127.314 66.1343 125.68 67.7378 124.072 69.3662C123.469 69.977 122.936 70.6575 122.361 71.2968C122.276 71.3909 122.109 71.5067 122.024 71.4789C121.924 71.4466 121.807 71.2661 121.809 71.1523C121.819 70.7319 121.91 70.3122 121.906 69.8927C121.881 66.5966 121.834 63.3006 121.807 60.0044C121.79 57.976 121.794 55.9473 121.796 53.9188C121.797 52.2802 121.812 50.6416 121.814 49.0031C121.816 47.0476 121.81 45.0922 121.811 43.1368C121.811 41.3276 121.815 39.5184 121.817 37.7092C121.82 35.9 121.822 34.0908 121.824 32.2816C121.826 30.4481 121.825 28.6145 121.83 26.7809C121.834 25.1911 121.845 23.6013 121.853 22.0115C121.861 20.4217 121.87 18.8319 121.877 17.2421C121.884 15.6035 121.89 13.9649 121.898 12.3264C121.905 10.7609 121.906 9.1954 121.927 7.63012C121.936 6.94203 121.985 6.25447 122.015 5.49353Z" fill="#156385"/>
<path d="M100.135 42.6486C100.138 40.8639 100.144 39.1523 100.147 37.4407C100.15 35.5829 100.145 33.7251 100.152 31.8673C100.158 30.497 100.191 29.1266 100.188 27.7563C100.184 25.2891 100.157 22.822 100.149 20.3549C100.144 18.619 100.159 16.883 100.159 15.147C100.16 13.1674 100.154 11.1877 100.155 9.20802C100.155 7.44771 100.153 5.68732 100.169 3.92712C100.175 3.33647 100.202 2.74182 100.287 2.15912C100.308 2.01702 100.599 1.81234 100.768 1.80975C103.333 1.77054 105.897 1.75217 108.462 1.7475C109.369 1.74585 110.277 1.81639 111.184 1.81001C111.621 1.80694 111.847 1.88059 111.846 2.3923C111.844 3.61092 111.916 4.82949 111.925 6.04833C111.938 7.83289 111.924 9.61767 111.92 11.4024C111.916 13.1383 111.914 14.8742 111.907 16.6102C111.901 18.1511 111.886 19.6921 111.881 21.233C111.875 23.0421 111.876 24.8512 111.873 26.6602C111.87 28.4205 111.865 30.1809 111.862 31.9412C111.859 33.7502 111.857 35.5593 111.855 37.3684C111.853 39.1774 111.848 40.9865 111.849 42.7955C111.849 44.824 111.857 46.8524 111.857 48.8808C111.858 50.6655 111.851 52.4502 111.85 54.2349C111.849 56.1658 111.85 58.0967 111.852 60.0276C111.854 62.0561 111.857 64.0845 111.862 66.1129C111.867 68.2632 111.878 70.4135 111.875 72.5638C111.875 72.7639 111.792 72.964 111.747 73.1641C111.59 73.0602 111.409 72.9792 111.277 72.8489C109.007 70.6068 106.736 68.3656 104.481 66.109C103.173 64.8005 101.876 63.4806 100.614 62.1283C100.37 61.8667 100.195 61.4337 100.188 61.0757C100.136 58.5361 100.13 55.9955 100.122 53.4553C100.116 51.7925 100.134 50.1296 100.137 48.4668C100.14 46.5518 100.137 44.6367 100.135 42.6486Z" fill="#156385"/>
<path d="M6.96378 32.4899C5.73597 33.7824 4.5353 35.0296 3.35495 36.2956C2.70234 36.9956 2.0865 37.7298 1.44591 38.4412C1.37576 38.5192 1.25146 38.5483 1.15227 38.6001C1.07614 38.4367 0.934437 38.2734 0.934464 38.11C0.934643 37.0078 1.00611 35.9046 0.978931 34.8036C0.71416 24.0795 0.443169 13.3555 0.140795 2.63234C0.119277 1.86923 0.342324 1.68839 1.05913 1.704C2.30084 1.73104 3.54461 1.63952 4.78779 1.62842C6.86475 1.60987 8.94193 1.6135 11.019 1.61154C12.8767 1.60979 14.7345 1.6136 16.5922 1.61405C18.4987 1.6145 20.4052 1.61119 22.3117 1.61448C23.95 1.6173 25.5884 1.63286 27.2268 1.63239C29.377 1.63178 31.5272 1.61346 33.6774 1.61756C34.8284 1.61975 35.9794 1.64918 37.1301 1.67827C37.2422 1.6811 37.3522 1.76827 37.4632 1.8163C37.4005 1.91341 37.3558 2.03066 37.2725 2.10453C36.3726 2.90302 35.4232 3.65102 34.5711 4.4972C32.7303 6.32528 30.9459 8.21011 29.1248 10.0582C26.9196 12.2958 24.6999 14.5191 22.4872 16.7494C21.3294 17.9164 20.1703 19.0823 19.0168 20.2536C17.5212 21.7722 16.028 23.2932 14.5383 24.8178C12.6428 26.7578 10.7559 28.7063 8.85667 30.6428C8.25159 31.2597 7.61927 31.8499 6.96378 32.4899Z" fill="#156385"/>
<path d="M78.5522 17.2949C78.5122 15.7351 78.4572 14.2487 78.4396 12.7617C78.4093 10.2135 78.3944 7.66494 78.39 5.11649C78.3884 4.16061 78.413 3.20319 78.4784 2.25009C78.49 2.08099 78.759 1.79331 78.9132 1.79062C81.3065 1.74873 83.7005 1.73667 86.0944 1.73616C87.0503 1.73595 88.0063 1.80324 88.9621 1.79905C90.1154 1.79399 90.2224 1.90835 90.1951 3.06108C90.1601 4.53658 90.1554 6.01313 90.1593 7.48917C90.166 10.0293 90.1916 12.5693 90.2053 15.1094C90.2173 17.357 90.227 19.6047 90.2317 21.8523C90.2356 23.7099 90.2308 25.5676 90.2294 27.4253C90.228 29.2586 90.225 31.0919 90.2246 32.9252C90.2242 34.856 90.2269 36.7868 90.2264 38.7176C90.226 40.5509 90.2181 42.3842 90.2229 44.2175C90.229 46.5626 90.2476 48.9077 90.2495 51.2528C90.2496 51.427 90.158 51.6013 90.1091 51.7755C90.0028 51.6655 89.8948 51.5571 89.7905 51.4453C89.4173 51.0446 89.0615 50.6262 88.6702 50.2442C86.4473 48.0742 84.2121 45.9168 81.9895 43.7464C81.0227 42.8023 80.0414 41.8687 79.1394 40.8649C78.8259 40.5161 78.5756 39.9744 78.5631 39.5136C78.4904 36.8287 78.4926 34.1417 78.4782 31.4554C78.4672 29.4028 78.4698 27.3501 78.4648 25.2974C78.4594 23.1473 78.4453 20.9971 78.4508 18.847C78.4521 18.354 78.518 17.8611 78.5522 17.2949Z" fill="#156385"/>
<path d="M45.2665 7.86708C43.4789 6.16895 41.7287 4.50645 39.9786 2.84395C39.8725 2.74319 39.7362 2.65962 39.667 2.53789C39.5454 2.32373 39.4648 2.08624 39.3671 1.85852C39.5675 1.82092 39.767 1.75661 39.9684 1.75007C41.2356 1.70893 42.5031 1.66276 43.7707 1.65229C45.6285 1.63696 47.4865 1.64655 49.3444 1.65246C50.8368 1.6572 52.329 1.67561 53.8213 1.68182C55.5817 1.68914 57.3421 1.68933 59.1026 1.69359C60.8142 1.69773 62.5259 1.69728 64.2375 1.70997C65.3887 1.71851 66.5407 1.72574 67.6896 1.78687C67.8716 1.79655 68.1818 2.08114 68.1902 2.25063C68.2685 3.83313 68.3116 5.41806 68.3283 7.00267C68.3395 8.05587 68.2643 9.10995 68.2742 10.1632C68.3096 13.9225 68.3696 17.6815 68.411 21.4407C68.4417 24.2248 68.459 27.009 68.4784 29.7932C68.4795 29.9554 68.4464 30.1178 68.4292 30.2802C68.2745 30.1868 68.0953 30.1187 67.9689 29.9961C66.0708 28.156 64.1768 26.3116 62.2877 24.4622C60.991 23.1926 59.7126 21.9043 58.4096 20.6412C55.3736 17.698 52.3237 14.7691 49.2877 11.8259C47.9495 10.5288 46.6313 9.21108 45.2665 7.86708Z" fill="#156385"/>
</svg>
