<svg width="185" height="33" viewBox="0 0 185 33" fill="none" xmlns="http://www.w3.org/2000/svg">
<path d="M15.6 30C14.9067 30.7733 13.9867 31.4 12.84 31.88C11.6933 32.3867 10.52 32.6933 9.32 32.8C8.68 32.88 7.94667 32.8933 7.12 32.84C6.32 32.7867 5.53333 32.6933 4.76 32.56C3.98667 32.4533 3.28 32.32 2.64 32.16C2 32.0267 1.52 31.8933 1.2 31.76C0.906667 31.6267 0.72 31.4933 0.64 31.36C0.56 31.2533 0.546667 31.04 0.6 30.72L1 26.84C1.02667 26.5733 1.08 26.4133 1.16 26.36C1.26667 26.3067 1.48 26.3467 1.8 26.48C2.30667 26.6933 2.88 26.8933 3.52 27.08C4.18667 27.24 4.85333 27.3733 5.52 27.48C6.21333 27.56 6.88 27.6133 7.52 27.64C8.18667 27.6667 8.78667 27.6133 9.32 27.48C10.44 27.2133 11.24 26.7733 11.72 26.16C12.2 25.5467 12.44 24.6667 12.44 23.52C12.44 23.28 12.3867 23 12.28 22.68C12.1733 22.36 11.9733 22.0133 11.68 21.64C11.3867 21.24 10.9867 20.8267 10.48 20.4C10 19.9733 9.37333 19.52 8.6 19.04C7.13333 18.1333 5.88 17.2933 4.84 16.52C3.82667 15.7467 2.98667 14.9867 2.32 14.24C1.68 13.4667 1.2 12.68 0.88 11.88C0.586667 11.08 0.44 10.2 0.44 9.24C0.44 8.04 0.68 6.93333 1.16 5.92C1.66667 4.88 2.34667 3.98667 3.2 3.24C4.08 2.46667 5.10667 1.86667 6.28 1.44C7.45333 1.01333 8.72 0.799999 10.08 0.799999C11.44 0.799999 12.6 0.906665 13.56 1.12C14.5467 1.30666 15.36 1.54667 16 1.84C16.3467 2 16.5333 2.13333 16.56 2.24C16.6133 2.34667 16.6133 2.54666 16.56 2.84L15.8 6.24C15.7467 6.48 15.6533 6.62667 15.52 6.68C15.3867 6.73333 15.12 6.69333 14.72 6.56C13.4667 6.16 12.3067 5.92 11.24 5.84C10.2 5.76 9.29333 5.85333 8.52 6.12C7.74667 6.38667 7.13333 6.81333 6.68 7.4C6.25333 7.96 6.04 8.68 6.04 9.56C6.04 10.2 6.32 10.8533 6.88 11.52C7.46667 12.1867 8.4 12.9067 9.68 13.68C11.3067 14.6933 12.6533 15.6 13.72 16.4C14.8133 17.2 15.68 17.9867 16.32 18.76C16.96 19.5067 17.4133 20.28 17.68 21.08C17.9467 21.8533 18.08 22.72 18.08 23.68C18.08 24.96 17.8533 26.12 17.4 27.16C16.9733 28.2 16.3733 29.1467 15.6 30ZM44.3169 32.2C44.0235 32.2 43.7969 32.16 43.6369 32.08C43.4769 32.0267 43.3302 31.84 43.1969 31.52L40.6769 24.92H28.2369L25.7169 31.52C25.5835 31.84 25.4369 32.0267 25.2769 32.08C25.1435 32.16 24.9302 32.2 24.6369 32.2H20.7569C20.3302 32.2 20.0502 32.12 19.9169 31.96C19.7835 31.8267 19.7969 31.5733 19.9569 31.2L31.5969 2.08C31.7835 1.62667 32.1035 1.4 32.5569 1.4H36.4369C36.7835 1.4 37.0102 1.45333 37.1169 1.56C37.2235 1.64 37.3435 1.82667 37.4769 2.12L49.0369 31.2C49.1969 31.6 49.2102 31.8667 49.0769 32C48.9702 32.1333 48.6902 32.2 48.2369 32.2H44.3169ZM30.1169 20H38.7969L34.4769 8.68L30.1169 20ZM52.7794 32.2C52.5394 32.2 52.3527 32.1733 52.2194 32.12C52.086 32.0667 52.0194 31.8533 52.0194 31.48V2.28C52.0194 1.98666 52.046 1.77333 52.0994 1.64C52.1794 1.48 52.406 1.4 52.7794 1.4H59.8994C61.3927 1.4 62.7394 1.57333 63.9394 1.92C65.166 2.24 66.206 2.73333 67.0594 3.4C67.9127 4.06667 68.566 4.92 69.0194 5.96C69.4994 6.97333 69.7394 8.16 69.7394 9.52C69.7394 10.1867 69.6327 10.8533 69.4194 11.52C69.2327 12.16 68.9527 12.7733 68.5794 13.36C68.206 13.92 67.7527 14.44 67.2194 14.92C66.686 15.3733 66.086 15.76 65.4194 16.08C66.2194 16.3733 66.926 16.76 67.5394 17.24C68.1794 17.72 68.7127 18.2667 69.1394 18.88C69.5927 19.4667 69.926 20.0933 70.1394 20.76C70.3794 21.4267 70.4994 22.0933 70.4994 22.76C70.4994 25.8 69.5394 28.1333 67.6194 29.76C65.6994 31.3867 62.7927 32.2 58.8994 32.2H52.7794ZM57.4594 6.24V13.96H59.2194C60.1794 13.96 60.9794 13.8533 61.6194 13.64C62.2594 13.4267 62.766 13.1333 63.1394 12.76C63.5394 12.3867 63.8194 11.96 63.9794 11.48C64.1394 10.9733 64.2194 10.4267 64.2194 9.84C64.2194 9.36 64.1527 8.90667 64.0194 8.48C63.886 8.02667 63.646 7.64 63.2994 7.32C62.9794 7 62.5394 6.74666 61.9794 6.56C61.4194 6.34667 60.726 6.24 59.8994 6.24H57.4594ZM57.3794 18.44V27.36H58.9794C60.1794 27.36 61.166 27.2533 61.9394 27.04C62.7127 26.8 63.326 26.4933 63.7794 26.12C64.2594 25.72 64.5927 25.2533 64.7794 24.72C64.966 24.16 65.0594 23.56 65.0594 22.92C65.0594 22.28 64.9527 21.6933 64.7394 21.16C64.5527 20.6 64.206 20.12 63.6994 19.72C63.2194 19.32 62.5527 19.0133 61.6994 18.8C60.8727 18.56 59.8327 18.44 58.5794 18.44H57.3794ZM95.8372 32.2C95.5439 32.2 95.3172 32.16 95.1572 32.08C94.9972 32.0267 94.8505 31.84 94.7172 31.52L92.1972 24.92H79.7572L77.2372 31.52C77.1039 31.84 76.9572 32.0267 76.7972 32.08C76.6639 32.16 76.4505 32.2 76.1572 32.2H72.2772C71.8505 32.2 71.5705 32.12 71.4372 31.96C71.3039 31.8267 71.3172 31.5733 71.4772 31.2L83.1172 2.08C83.3039 1.62667 83.6239 1.4 84.0772 1.4H87.9572C88.3039 1.4 88.5305 1.45333 88.6372 1.56C88.7439 1.64 88.8639 1.82667 88.9972 2.12L100.557 31.2C100.717 31.6 100.731 31.8667 100.597 32C100.491 32.1333 100.211 32.2 99.7572 32.2H95.8372ZM81.6372 20H90.3172L85.9972 8.68L81.6372 20ZM120.62 6.44V31.4C120.62 31.72 120.553 31.9333 120.42 32.04C120.313 32.1467 120.126 32.2 119.86 32.2H115.94C115.673 32.2 115.473 32.1467 115.34 32.04C115.233 31.9333 115.18 31.72 115.18 31.4V6.44H108.1C107.806 6.44 107.593 6.38666 107.46 6.28C107.353 6.17333 107.3 5.97333 107.3 5.68V2.2C107.3 1.66667 107.566 1.4 108.1 1.4H127.78C128.126 1.4 128.34 1.46667 128.42 1.6C128.526 1.70667 128.58 1.90667 128.58 2.2V5.68C128.58 5.97333 128.526 6.17333 128.42 6.28C128.34 6.38666 128.126 6.44 127.78 6.44H120.62ZM153.297 32.2C153.003 32.2 152.777 32.16 152.617 32.08C152.457 32.0267 152.31 31.84 152.177 31.52L149.657 24.92H137.217L134.697 31.52C134.563 31.84 134.417 32.0267 134.257 32.08C134.123 32.16 133.91 32.2 133.617 32.2H129.737C129.31 32.2 129.03 32.12 128.897 31.96C128.763 31.8267 128.777 31.5733 128.937 31.2L140.577 2.08C140.763 1.62667 141.083 1.4 141.537 1.4H145.417C145.763 1.4 145.99 1.45333 146.097 1.56C146.203 1.64 146.323 1.82667 146.457 2.12L158.017 31.2C158.177 31.6 158.19 31.8667 158.057 32C157.95 32.1333 157.67 32.2 157.217 32.2H153.297ZM139.097 20H147.777L143.457 8.68L139.097 20ZM183.359 31.2C182.879 31.44 182.266 31.6533 181.519 31.84C180.772 32.0267 179.972 32.1733 179.119 32.28C178.292 32.4133 177.439 32.5067 176.559 32.56C175.706 32.64 174.919 32.68 174.199 32.68C171.959 32.68 169.879 32.32 167.959 31.6C166.066 30.9067 164.426 29.8933 163.039 28.56C161.679 27.2 160.599 25.5333 159.799 23.56C159.026 21.5867 158.639 19.3333 158.639 16.8C158.639 14.5067 158.999 12.3867 159.719 10.44C160.466 8.49333 161.506 6.81333 162.839 5.4C164.199 3.98667 165.839 2.89333 167.759 2.12C169.679 1.32 171.839 0.919998 174.239 0.919998C175.812 0.919998 177.266 1.02666 178.599 1.24C179.932 1.42667 181.172 1.69333 182.319 2.04C182.719 2.17333 182.946 2.30667 182.999 2.44C183.079 2.54666 183.092 2.72 183.039 2.96L182.439 6.52C182.386 6.92 182.266 7.13333 182.079 7.16C181.919 7.16 181.639 7.09333 181.239 6.96C180.039 6.56 178.852 6.28 177.679 6.12C176.532 5.96 175.372 5.88 174.199 5.88C172.732 5.88 171.386 6.14667 170.159 6.68C168.959 7.21333 167.919 7.97333 167.039 8.96C166.159 9.92 165.466 11.0667 164.959 12.4C164.479 13.7333 164.239 15.2 164.239 16.8C164.239 18.5333 164.479 20.08 164.959 21.44C165.466 22.8 166.159 23.96 167.039 24.92C167.946 25.8533 168.999 26.5733 170.199 27.08C171.426 27.56 172.759 27.8 174.199 27.8C175.186 27.8 176.079 27.7733 176.879 27.72C177.706 27.64 178.332 27.5333 178.759 27.4V20H172.639C172.106 20 171.839 19.7333 171.839 19.2V15.8C171.839 15.2667 172.119 15 172.679 15H182.919C183.532 15 183.892 15.08 183.999 15.24C184.132 15.4 184.199 15.7467 184.199 16.28V29.56C184.199 30.0667 184.132 30.4133 183.999 30.6C183.866 30.8133 183.652 31.0133 183.359 31.2Z" fill="#156385"/>
</svg>
